<svg xmlns="http://www.w3.org/2000/svg" viewBox="0 0 1280 720">
  <rect width="1280" height="720" fill="#0d0f1f"/>
  <g stroke="#3a4a9f" stroke-width="2" opacity="0.8">
    <line x1="640" y1="380" x2="300" y2="220"/><line x1="640" y1="380" x2="980" y2="220"/>
    <line x1="640" y1="380" x2="300" y2="540"/><line x1="640" y1="380" x2="980" y2="540"/>
    <line x1="300" y1="220" x2="160" y2="380"/><line x1="980" y1="220" x2="1120" y2="380"/>
    <line x1="300" y1="540" x2="160" y2="380"/><line x1="980" y1="540" x2="1120" y2="380"/>
  </g>
  <g fill="none" stroke-width="3">
    <polygon points="640,320 700,380 640,440 580,380" stroke="#ffe14d"/>
    <circle cx="300" cy="220" r="40" stroke="#ffe14d"/>
    <circle cx="980" cy="220" r="40" stroke="#4fe3ff"/>
    <circle cx="300" cy="540" r="40" stroke="#ffb31e"/>
    <circle cx="980" cy="540" r="40" stroke="#8b5cf6"/>
    <circle cx="160" cy="380" r="22" stroke="#4fe3ff" opacity="0.6"/>
    <circle cx="1120" cy="380" r="22" stroke="#ffb31e" opacity="0.6"/>
  </g>
  <g fill="#4fe3ff"><circle cx="470" cy="300" r="6"/><circle cx="810" cy="460" r="6"/></g>
  <g fill="#ffb31e"><circle cx="470" cy="460" r="6"/><circle cx="810" cy="300" r="6"/></g>
  <g font-family="Arial Narrow, sans-serif" font-size="26" letter-spacing="4" text-anchor="middle">
    <text x="300" y="150" fill="#ffe14d">QC TRACKER</text>
    <text x="980" y="150" fill="#4fe3ff">AI CHATBOT</text>
    <text x="300" y="620" fill="#ffb31e">RETURN RISK</text>
    <text x="980" y="620" fill="#8b5cf6">DATA PIPELINE</text>
  </g>
  <text x="60" y="90" font-family="Arial Narrow, sans-serif" font-size="44" letter-spacing="12" fill="#eef0ff" opacity="0.85">SIDE QUESTS · BUILT WITH AI</text>
</svg>
