<svg xmlns="http://www.w3.org/2000/svg" viewBox="0 0 1280 720">
  <rect width="1280" height="720" fill="#0d0f1f"/>
  <g stroke="#232849" stroke-width="2">
    <line x1="0" y1="620" x2="1280" y2="620"/>
    <line x1="640" y1="300" x2="80" y2="720"/>
    <line x1="640" y1="300" x2="1200" y2="720"/>
    <line x1="640" y1="300" x2="400" y2="720"/>
    <line x1="640" y1="300" x2="880" y2="720"/>
  </g>
  <g fill="none" stroke-width="3">
    <rect x="150" y="430" width="150" height="120" stroke="#4fe3ff"/>
    <rect x="180" y="310" width="120" height="100" stroke="#4fe3ff" opacity="0.7"/>
    <rect x="980" y="430" width="150" height="120" stroke="#4fe3ff"/>
    <rect x="1000" y="320" width="120" height="95" stroke="#8b5cf6" opacity="0.8"/>
    <rect x="420" y="440" width="90" height="75" stroke="#4fe3ff" opacity="0.8"/>
    <rect x="760" y="440" width="90" height="75" stroke="#ffb31e" opacity="0.9"/>
    <rect x="540" y="450" width="60" height="50" stroke="#4fe3ff" opacity="0.6"/>
    <rect x="690" y="450" width="60" height="50" stroke="#4fe3ff" opacity="0.6"/>
  </g>
  <rect x="0" y="380" width="1280" height="10" fill="#ffe14d" opacity="0.55"/>
  <rect x="0" y="374" width="1280" height="22" fill="#ffe14d" opacity="0.15"/>
  <g fill="#ffe14d">
    <rect x="590" y="120" width="6" height="70"/><rect x="602" y="120" width="3" height="70"/>
    <rect x="612" y="120" width="9" height="70"/><rect x="628" y="120" width="4" height="70"/>
    <rect x="640" y="120" width="7" height="70"/><rect x="654" y="120" width="3" height="70"/>
    <rect x="663" y="120" width="6" height="70"/><rect x="676" y="120" width="10" height="70"/>
  </g>
  <text x="60" y="90" font-family="Arial Narrow, sans-serif" font-size="44" letter-spacing="12" fill="#eef0ff" opacity="0.85">EP02 · THE LISTING WAREHOUSE</text>
</svg>
