<svg xmlns="http://www.w3.org/2000/svg" viewBox="0 0 1280 720">
  <rect width="1280" height="720" fill="#0d0f1f"/>
  <g fill="none" stroke-width="3">
    <g transform="rotate(-8 260 320)">
      <rect x="120" y="220" width="280" height="180" rx="10" stroke="#4fe3ff"/>
      <rect x="150" y="330" width="26" height="46" stroke="#4fe3ff"/>
      <rect x="190" y="300" width="26" height="76" stroke="#4fe3ff"/>
      <rect x="230" y="270" width="26" height="106" stroke="#4fe3ff"/>
      <rect x="270" y="310" width="26" height="66" stroke="#4fe3ff"/>
      <rect x="310" y="250" width="26" height="126" stroke="#4fe3ff"/>
    </g>
    <rect x="480" y="180" width="320" height="200" rx="10" stroke="#ff4fa3"/>
    <path d="M510 330 L560 290 L610 310 L660 250 L710 270 L770 220" stroke="#ff4fa3"/>
    <g transform="rotate(8 1020 320)">
      <rect x="880" y="220" width="280" height="180" rx="10" stroke="#8b5cf6"/>
      <line x1="910" y1="270" x2="1090" y2="270" stroke="#8b5cf6"/>
      <line x1="910" y1="310" x2="1050" y2="310" stroke="#8b5cf6"/>
      <line x1="910" y1="350" x2="1110" y2="350" stroke="#8b5cf6"/>
    </g>
    <circle cx="640" cy="530" r="70" stroke="#ffe14d"/>
    <path d="M640 530 L640 470 A60 60 0 0 1 692 560 Z" stroke="#ffe14d" fill="#ffe14d" fill-opacity="0.15"/>
  </g>
  <polygon points="640,430 656,446 640,462 624,446" fill="#ff4fa3"/>
  <text x="60" y="90" font-family="Arial Narrow, sans-serif" font-size="44" letter-spacing="12" fill="#eef0ff" opacity="0.85">EP04 · NOW AIRING — THE COMMAND DECK</text>
</svg>
